<svg xmlns="http://www.w3.org/2000/svg" width="259" height="47" viewBox="0 0 259 47">
    <path fill="#333" fill-rule="evenodd" d="M.816.432h6.272l9.856 27.456h.128V.432H23.6V46h-6.144L7.472 18.608h-.128V46H.816V.432zm35.2 20.352h3.712c1.152 0 2.07-.16 2.752-.48.683-.32 1.205-.779 1.568-1.376.363-.597.608-1.333.736-2.208.128-.875.192-1.888.192-3.04 0-1.152-.064-2.165-.192-3.04s-.395-1.621-.8-2.24c-.405-.619-.97-1.077-1.696-1.376-.725-.299-1.685-.448-2.88-.448h-3.392v14.208zM29.488.432h10.496c7.68 0 11.52 4.459 11.52 13.376 0 2.645-.416 4.917-1.248 6.816-.832 1.899-2.293 3.424-4.384 4.576l7.04 20.8H46l-6.08-19.456h-3.904V46h-6.528V.432zm27.456 0h6.528V46h-6.528V.432zM96.88 35.248c0 1.493-.256 2.912-.768 4.256a10.715 10.715 0 0 1-2.208 3.552c-.96 1.024-2.123 1.835-3.488 2.432-1.365.597-2.923.896-4.672.896-2.09 0-3.83-.459-5.216-1.376-1.387-.917-2.485-1.824-3.296-2.72l5.12-4.096c.47.47 1.013.864 1.632 1.184.619.32 1.27.48 1.952.48.384 0 .832-.075 1.344-.224.512-.15.992-.427 1.44-.832.448-.405.832-.96 1.152-1.664.32-.704.48-1.632.48-2.784V.432h6.528v34.816zm5.76-24.064c0-1.835.32-3.456.96-4.864.64-1.408 1.483-2.57 2.528-3.488a10.897 10.897 0 0 1 3.52-2.08 11.528 11.528 0 0 1 3.936-.704c1.323 0 2.635.235 3.936.704a10.897 10.897 0 0 1 3.52 2.08c1.045.917 1.888 2.08 2.528 3.488.64 1.408.96 3.03.96 4.864v24.064c0 1.877-.32 3.51-.96 4.896-.64 1.387-1.483 2.539-2.528 3.456a10.897 10.897 0 0 1-3.52 2.08c-1.301.47-2.613.704-3.936.704s-2.635-.235-3.936-.704a10.897 10.897 0 0 1-3.52-2.08c-1.045-.917-1.888-2.07-2.528-3.456-.64-1.387-.96-3.019-.96-4.896V11.184zm6.528 24.064c0 1.579.437 2.741 1.312 3.488.875.747 1.91 1.12 3.104 1.12 1.195 0 2.23-.373 3.104-1.12.875-.747 1.312-1.91 1.312-3.488V11.184c0-1.579-.437-2.741-1.312-3.488-.875-.747-1.91-1.12-3.104-1.12-1.195 0-2.23.373-3.104 1.12-.875.747-1.312 1.91-1.312 3.488v24.064zm42.24.512c0 1.493-.277 2.88-.832 4.16a10.744 10.744 0 0 1-2.272 3.36c-.96.96-2.08 1.717-3.36 2.272a10.19 10.19 0 0 1-4.096.832 10.19 10.19 0 0 1-4.096-.832 10.744 10.744 0 0 1-3.36-2.272c-.96-.96-1.717-2.08-2.272-3.36-.555-1.28-.832-2.667-.832-4.16V.432h6.528V35.12c0 1.621.384 2.816 1.152 3.584.768.768 1.728 1.152 2.88 1.152s2.112-.384 2.88-1.152c.768-.768 1.152-1.963 1.152-3.584V.432h6.528V35.76zm12.672-14.976h3.712c1.152 0 2.07-.16 2.752-.48.683-.32 1.205-.779 1.568-1.376.363-.597.608-1.333.736-2.208.128-.875.192-1.888.192-3.04 0-1.152-.064-2.165-.192-3.04s-.395-1.621-.8-2.24c-.405-.619-.97-1.077-1.696-1.376-.725-.299-1.685-.448-2.88-.448h-3.392v14.208zM157.552.432h10.496c7.68 0 11.52 4.459 11.52 13.376 0 2.645-.416 4.917-1.248 6.816-.832 1.899-2.293 3.424-4.384 4.576l7.04 20.8h-6.912l-6.08-19.456h-3.904V46h-6.528V.432zm27.008 0h6.272l9.856 27.456h.128V.432h6.528V46H201.2l-9.984-27.392h-.128V46h-6.528V.432zm38.656 13.12h-.128l-3.2 16.512h6.528l-3.2-16.512zM220.464.432h5.44L236.08 46h-6.528l-1.92-9.792h-8.896L216.816 46h-6.528L220.464.432zm18.816 0h6.528v39.04h12.928V46H239.28V.432z"/>
</svg>
